<?xml version="1.0" standalone="no"?>
<!DOCTYPE svg PUBLIC "-//W3C//DTD SVG 20010904//EN"
 "http://www.w3.org/TR/2001/REC-SVG-20010904/DTD/svg10.dtd">
<svg version="1.0" xmlns="http://www.w3.org/2000/svg"
 width="128.000000pt" height="128.000000pt" viewBox="0 0 128.000000 128.000000"
 preserveAspectRatio="xMidYMid meet">

<g transform="translate(0.000000,128.000000) scale(0.100000,-0.100000)"
fill="#000000" stroke="none">
<path d="M548 1250 c-237 -43 -422 -202 -495 -424 -37 -115 -37 -257 0 -372
63 -190 211 -338 401 -401 115 -37 257 -37 372 0 190 63 338 211 401 401 37
115 37 257 0 372 -62 189 -213 340 -398 399 -87 27 -209 38 -281 25z m372
-519 l0 -289 -26 -31 c-33 -39 -84 -54 -132 -38 -113 37 -53 173 73 165 l50
-3 3 148 c2 130 1 148 -14 154 -40 15 -339 -44 -356 -70 -4 -6 -8 -105 -8
-218 l0 -205 -29 -28 c-20 -20 -43 -30 -73 -33 -99 -10 -145 74 -77 138 31 29
39 31 114 33 l40 1 3 243 2 243 28 10 c75 29 265 64 370 68 l32 1 0 -289z"/>
</g>
</svg>
